<?xml version="1.0" encoding="utf-8"?>
<!-- Generator: Adobe Illustrator 19.2.1, SVG Export Plug-In . SVG Version: 6.00 Build 0)  -->
<svg version="1.1" id="Layer_1" xmlns="http://www.w3.org/2000/svg" xmlns:xlink="http://www.w3.org/1999/xlink" x="0px" y="0px"
	 viewBox="0 0 147 67.7" style="enable-background:new 0 0 147 67.7;" xml:space="preserve">
<style type="text/css">
	.st0{fill:#FFFFFF;}
</style>
<g>
	<path class="st0" d="M127.7,36.9c0,2,0,4,0,6c0,1.4-0.3,2.8-1.1,4c-1.2,1.8-3,2.9-5.5,3.2c-1.6,0.2-3.3,0.2-4.8-0.3
		c-3-1-4.5-2.9-4.9-5.5c-0.1-0.7-0.1-1.4-0.1-2.1c0-3.9,0-7.8,0-11.7c0-1.9,0.6-3.8,2.4-5.2c1.2-0.9,2.6-1.5,4.1-1.6
		c1.8-0.2,3.7-0.2,5.4,0.5c2.7,1,4,2.9,4.3,5.2C127.8,31.9,127.7,34.4,127.7,36.9C127.8,36.9,127.8,36.9,127.7,36.9z M121.4,36.9
		c0-2,0-4.1,0-6.1c0-0.6-0.1-1.2-0.3-1.8c-0.2-0.6-0.8-0.8-1.5-0.8c-0.7,0-1.3,0.2-1.6,0.8c-0.2,0.4-0.3,0.9-0.3,1.4
		c0,4.4,0,8.7,0,13.1c0,0.4,0.1,0.8,0.2,1.2c0.3,0.7,0.8,1,1.7,1c0.8,0,1.4-0.3,1.6-1c0.2-0.5,0.2-1.1,0.2-1.7
		C121.4,40.9,121.4,38.9,121.4,36.9z"/>
	<path class="st0" d="M140.7,24.1c2.1,0,4.2,0,6.3,0c0,0.2,0,0.3,0,0.5c0,6.1,0,12.2,0,18.4c0,2.1-0.6,4-2.5,5.5
		c-1.2,1-2.7,1.5-4.4,1.7c-1.9,0.2-3.7,0.1-5.5-0.7c-2.4-1.1-3.6-2.9-3.9-5.1c-0.1-0.6-0.1-1.3-0.1-1.9c0-5.9,0-11.8,0-17.7
		c0-0.2,0-0.4,0-0.6c2.1,0,4.1,0,6.3,0c0,0.2,0,0.4,0,0.6c0,6,0,12,0,18.1c0,0.6,0.1,1.1,0.2,1.7c0.2,0.8,0.8,1.1,1.9,1
		c0.9,0,1.4-0.4,1.5-1.1c0.1-0.5,0.1-1.1,0.1-1.6c0-6,0-12,0-18C140.7,24.5,140.7,24.3,140.7,24.1z"/>
	<path class="st0" d="M37.1,45.2c-1.5,0-2.9,0-4.3,0c-0.1,0-0.3,0.2-0.3,0.4c-0.2,1.4-0.4,2.8-0.6,4.2c-2.1,0-4.2,0-6.3,0
		c0.1-0.7,0.3-1.5,0.4-2.2c0.8-3.9,1.6-7.9,2.4-11.8c0.8-3.8,1.5-7.6,2.3-11.4c0-0.1,0.3-0.3,0.4-0.3c2.5,0,5.1,0,7.6,0
		c0.3,0,0.5,0.1,0.5,0.4c0.6,3,1.2,6,1.8,9.1c0.6,3.1,1.2,6.1,1.8,9.2c0.5,2.3,0.9,4.5,1.4,6.8c0,0.1,0,0.2,0,0.3
		c-0.2,0-0.4,0-0.6,0c-1.8,0-3.5,0-5.3,0c-0.6,0-0.7-0.1-0.8-0.6C37.4,47.9,37.2,46.6,37.1,45.2z M35,28.2c-0.1,0-0.1,0-0.2,0
		c-0.1,0.7-0.2,1.4-0.3,2.1c-0.2,1.7-0.4,3.5-0.7,5.2c-0.2,1.6-0.4,3.2-0.6,4.9c0,0.1,0.2,0.4,0.2,0.4c1,0,1.9,0,3,0
		C35.9,36.5,35.4,32.3,35,28.2z"/>
	<path class="st0" d="M79.5,40.5c0.2,0,0.4,0,0.6,0c1,0,2.1,0,3.1,0c0.6,0,0.8-0.2,0.8-0.7c0-0.8,0-1.7,0-2.5c0-0.3,0.1-0.5,0.2-0.7
		c1.5-2.1,2.6-4.2,3.2-6.6c0.1-0.3,0.2-0.4,0.6-0.4c1.7,0,1.7,0,1.7,1.4c0,3,0,6,0,8.9c0,0.5,0.2,0.6,0.7,0.6c1.3,0,1.3,0,1.3,1.1
		c0,1,0,1.9,0,2.9c0,0.3-0.1,0.5-0.6,0.5c-1.5,0-1.5,0-1.5,1.3c0,1,0,2,0,3.1c0,0.3-0.1,0.5-0.5,0.5c-1.6,0-3.2,0-4.7,0
		c-0.5,0-0.6-0.2-0.6-0.5c0-1.2,0-2.3,0-3.5c0-0.9,0-0.9-1-0.9c-2.1,0-4.3,0-6.4,0c-0.5,0-0.6-0.1-0.6-0.5c0-1.5,0-2.9,0-4.4
		c0-0.2,0.1-0.5,0.2-0.7c1.6-3.3,2.6-6.7,3.2-10.1c0.3-1.5,0.4-2.9,0.6-4.4c0-0.3,0.1-0.4,0.4-0.3c1.8,0,3.6,0,5.4,0
		c0.4,0,0.4,0.2,0.4,0.5c-0.3,1.4-0.5,2.9-0.9,4.3c-1.1,3.8-3.1,7.3-5.4,10.6c-0.1,0.2-0.2,0.3-0.3,0.5
		C79.5,40.3,79.5,40.3,79.5,40.5z"/>
	<path class="st0" d="M98.1,49.8c0-0.2,0-0.4,0-0.6c0-2.5,0-5,0-7.6c0-1.4-0.2-2.6-0.7-3.9c-1.5-4.4-2.9-8.7-4.4-13.1
		c0-0.1-0.1-0.3-0.1-0.5c2.2,0,4.3,0,6.5,0c0.6,2.8,1.2,5.7,1.7,8.5c0,0,0.1,0,0.1,0c0.6-2.8,1.2-5.7,1.8-8.5c2.1,0,4.2,0,6.4,0
		c-0.1,0.2-0.1,0.4-0.2,0.6c-1.6,4.7-3.2,9.4-4.8,14.1c-0.1,0.3-0.1,0.6-0.1,0.8c0,3.2,0,6.4,0,9.5c0,0.2,0,0.4,0,0.6
		C102.3,49.8,100.2,49.8,98.1,49.8z"/>
	<path class="st0" d="M61.4,24.1c2.1,0,4.1,0,6.2,0c0,0.2,0,0.4,0,0.6c0,6.5,0,13,0,19.5c0,0.7,0,0.7,0.8,0.7c1.8,0,3.6,0,5.4,0
		c0.2,0,0.4,0,0.7,0c0,1.6,0,3.2,0,4.8c-4.4,0-8.7,0-13.1,0C61.4,41.2,61.4,32.7,61.4,24.1z"/>
	<path class="st0" d="M46.1,49.8c0-8.6,0-17.1,0-25.7c0.2,0,0.4,0,0.5,0c1.7,0,3.3,0,5,0c0.5,0,0.6,0.1,0.6,0.5c0,2,0,3.9,0,5.9
		c0,4.6,0,9.2,0,13.8c0,0.7,0,0.7,0.8,0.7c1.8,0,3.6,0,5.4,0c0.2,0,0.5,0,0.7,0c0,1.6,0,3.2,0,4.8C54.9,49.8,50.5,49.8,46.1,49.8z"
		/>
</g>
<path class="st0" d="M3.6,42.8c-0.3-1.9-0.6-3.6-0.9-5.4c-1,0.8-1.7,1.9-2.5,2.8c0,0-0.1,0-0.1-0.1c0.2-0.9,0.4-1.9,0.7-2.8
	c0.4-1.1,0.8-2.2,1.2-3.2C2,33.8,2,33.6,2,33.5c-0.1-2.1-0.3-4.2-0.5-6.4c0-0.2,0-0.3,0-0.5c1-0.1,1.9,0.1,2.8,0.3
	c0.4,0.1,1,0.4,1.3,0.2C6,27,6.2,26.4,6.4,26.1c1.9-2.8,4-5.3,6.2-7.8c0.1-0.1,0.1-0.2,0.2-0.3c-1.3,3.6-2.6,7.1-3.9,10.6
	c1,0.6,2,1.2,2.9,1.8c0.9,0.6,1.8,1.3,2.7,2c-0.9,0.3-1.8,0.6-2.6,0.9c-1.6,0.6-3.3,1.3-4.9,1.9c-0.4,0.1-0.6,0.4-0.7,0.7
	c-0.9,2.2-1.8,4.3-2.6,6.5C3.7,42.5,3.7,42.5,3.6,42.8z"/>
<path class="st0" d="M65,21c0-1.2,0.1-2.4,0-3.6c-0.4-4.4-2.6-7.6-6.5-9.6c-1.8-1-3.8-1.5-5.9-1.9c-0.1,0-0.3-0.1-0.5-0.1
	c0-0.1,0.1-0.2,0.1-0.4c0.5-1.3,1-2.6,1.4-4c0.1-0.3,0.2-0.4,0.6-0.3c1.5,0.3,3,0.6,4.4,1.3c3.3,1.6,5.3,4.3,6.2,7.8
	c0.7,2.5,0.8,5,0.6,7.5C65.4,18.8,65.2,19.9,65,21C65.1,21,65.1,21,65,21z"/>
<path class="st0" d="M16.9,24.1c-1.5,1.1-3,2.1-4.5,3.1c0,0,0,0-0.1,0c0-0.1,0.1-0.2,0.1-0.3c1-1.8,2.1-3.5,3.5-5.1
	c0.1-0.1,0.2-0.4,0.2-0.6c0.1-0.8,0.1-1.5,0.2-2.3c0-0.3,0.1-0.4,0.4-0.5c1-0.1,1.9-0.3,2.9-0.5c0.3-0.1,0.6-0.2,0.8-0.4
	c2.1-1.6,4.1-3.3,6.1-4.9c0.1,0,0.1-0.1,0.2-0.1c-1.4,1.6-2.9,3.2-3.9,5.2c1.8,0.2,3.5,0.3,5.2,0.5c0,0,0,0.1,0,0.1
	c-0.1,0.1-0.3,0.1-0.4,0.2c-2,0.9-3.9,1.7-5.9,2.6c-0.3,0.1-0.5,0.4-0.7,0.6c-1.3,1.9-2.3,3.9-3,6.1c0,0.1-0.1,0.2-0.2,0.4
	C17.6,26.8,17.2,25.5,16.9,24.1z"/>
<path class="st0" d="M14.6,16.2c1.1-1.4,2.1-2.9,3.2-4.3c0.1-0.1,0.1-0.2,0.2-0.3c0.2-0.4,0.2-0.6-0.3-0.7c-0.5-0.1-1-0.2-1.5-0.3
	c0.2-0.1,0.2-0.2,0.3-0.2c1.3-0.6,2.6-1.1,3.8-1.9c0.7-0.4,1.3-1.1,1.9-1.7C23,6,23.7,5.2,24.5,4.3c-0.1,1-0.1,1.8-0.2,2.8
	c1.6-0.5,3-0.9,4.5-1.4c0,0,0,0,0,0c-0.6,0.5-1.3,0.9-1.9,1.4c-1,0.8-2,1.6-2.9,2.4C24,9.6,23.8,9.8,23.8,10c-0.4,1.3-0.7,2.7-1,4.1
	c-0.7-0.6-1.3-1.1-1.9-1.6c-0.9-0.8-0.6-0.8-1.5,0C17.7,13.7,16.2,15,14.6,16.2C14.6,16.2,14.6,16.2,14.6,16.2z"/>
<path class="st0" d="M26,10c1-0.7,1.9-1.6,2.9-2.2c1.1-0.7,1.8-1.5,1.9-2.8c0-0.3,0.1-0.6,0.2-1c0.6,0.4,1.1,0.8,1.7,1.2
	c0.2,0.2,0.4,0.2,0.7,0.1c1.3-0.5,2.6-0.9,4-1.4c0,0,0.1,0.1,0.1,0.1c-0.1,0.1-0.3,0.3-0.4,0.4c-0.8,0.8-1.5,1.6-2.3,2.3
	c-0.2,0.2-0.2,0.4,0,0.7c0.5,0.7,0.9,1.4,1.4,2.2c-0.8,0-1.6,0-2.4-0.1c-1-0.2-1.7,0.1-2.3,0.9c-0.7,1-1.6,1.9-2.5,2.9
	c0.3-1.5,0.6-2.8,0.9-4.3c-1.4,0.3-2.6,0.6-3.9,0.9C26.1,10.1,26.1,10.1,26,10z"/>
<path class="st0" d="M38.2,5.4c0.6-0.8,1.3-1.6,2-2.5c-0.9-0.2-1.6-0.4-2.5-0.6c1-0.2,1.9-0.4,2.9-0.6c0.4-0.1,0.8-0.2,1.1-0.5
	c0.4-0.4,0.8-0.8,1.3-1.2c0.5,1.7,1.8,1.2,3,1.2c-0.6,0.3-1.2,0.6-1.7,0.9c-0.5,0.2-0.7,0.6-0.6,1.2c0.1,0.5,0.1,1.1,0.1,1.6
	c-0.5-0.3-0.9-0.6-1.4-0.9c-0.6-0.4-1.2-0.4-1.8,0C39.9,4.5,39.1,4.9,38.2,5.4C38.3,5.4,38.2,5.4,38.2,5.4z"/>
<path class="st0" d="M50.8,2.7c-0.3,0-0.7,0-1,0c-0.2,0-0.5,0.1-0.6,0.3c-0.4,0.4-0.7,0.9-1.1,1.3c0.3-1.5-0.6-2-1.9-2
	c0,0,0.1-0.1,0.1-0.1c0.4,0,0.8-0.2,1.1-0.1c0.5,0,0.7-0.2,0.8-0.6c0-0.1,0.1-0.2,0.1-0.3c0.4,0.1,0.7,0.3,0.8,0.7
	c0.1,0.3,0.3,0.4,0.5,0.4c0.4,0.1,0.8,0.3,1.2,0.4C50.8,2.7,50.8,2.7,50.8,2.7z"/>
<g>
	<path class="st0" d="M99.7,57.9c0,1.1,0,2.1,0,3.3c-0.4,0-0.7,0-1.1,0c0-1.8,0-3.6,0-5.3c0.1,0,0.1-0.1,0.1-0.1
		c1.5-0.2,1.5-0.2,1.8,1.3c0.1,0.5,0.2,1,0.5,1.5c0.1-0.7,0.3-1.4,0.4-2.1c0.1-0.7,0.4-0.9,1-0.8c0.2,0,0.5,0,0.8,0
		c0,1.8,0,3.6,0,5.5c-0.3,0-0.7,0-1,0c0-1.2,0-2.3,0-3.5c0,0-0.1,0-0.1,0c-0.2,1-0.4,1.9-0.6,2.9c-0.1,0.3-0.1,0.6-0.6,0.6
		c-0.5,0-0.5-0.3-0.6-0.7c-0.2-0.9-0.4-1.8-0.5-2.7C99.8,57.9,99.7,57.9,99.7,57.9z"/>
	<path class="st0" d="M128,61.2c-0.3,0-0.7,0-1,0c0-1.2,0-2.4,0-3.5c0,0-0.1,0-0.1,0c-0.2,1-0.4,1.9-0.6,2.9c-0.1,0.3,0,0.7-0.6,0.7
		c-0.6,0-0.5-0.4-0.6-0.8c-0.2-1-0.4-1.9-0.7-2.9c0,1.2,0,2.3,0,3.6c-0.4,0-0.7,0-1.1,0c0-1.8,0-3.6,0-5.4c0.6,0,1.1,0,1.7,0
		c0.2,0.9,0.4,1.8,0.6,2.7c0.1,0,0.1,0,0.2,0c0.2-0.9,0.4-1.8,0.6-2.8c0.5,0,1.1,0,1.7,0C128,57.6,128,59.4,128,61.2z"/>
	<path class="st0" d="M132.8,61.2c0-1.8,0-3.6,0-5.3c1.2-0.2,1.2-0.2,1.5,0.9c0.2,0.5,0.3,1.1,0.6,1.6c0-0.8,0-1.6,0-2.5
		c0.3,0,0.7,0,1,0c0,1.8,0,3.5,0,5.3c-1.1,0.3-1.1,0.3-1.5-0.8c-0.2-0.5-0.4-1.1-0.7-1.6c0,0.8,0,1.6,0,2.4
		C133.5,61.2,133.2,61.2,132.8,61.2z"/>
	<path class="st0" d="M115.9,55.8c0.4,0,0.8,0,1.1,0c0,1.8,0,3.6,0,5.3c-1.2,0.3-1.2,0.2-1.5-0.8c-0.2-0.6-0.4-1.1-0.7-1.7
		c0,0.8,0,1.7,0,2.6c-0.4,0-0.7,0-1,0c0-1.8,0-3.6,0-5.3c1.1-0.3,1.1-0.2,1.5,0.8c0.2,0.5,0.3,1,0.6,1.5
		C115.9,57.4,115.9,56.6,115.9,55.8z"/>
	<path class="st0" d="M88.5,58.3c0.8,0,1.3,0,1.8,0c0,1,0,1.9,0,2.8c-0.7,0.1-1.3,0.2-1.9,0.3c-0.8,0.1-1.3-0.3-1.4-1.1
		c-0.1-1.1-0.1-2.1-0.1-3.2c0.1-1.2,0.7-1.6,2-1.5c1,0.1,1.4,0.7,1.3,1.9c-0.4,0-0.7,0-0.9,0c-0.3-0.4-0.6-0.9-0.8-0.9
		c-0.6,0-0.4,0.6-0.4,1c0,0.7,0,1.4,0,2.1c0,0.2,0.2,0.5,0.4,0.7c0,0,0.4-0.1,0.5-0.2c0.1-0.3,0-0.6,0-0.8
		C88.9,59,88.7,58.7,88.5,58.3z"/>
	<path class="st0" d="M62.7,55.7c0.6,0,1.2,0,1.7,0c1.4,0,2,1.2,1.3,2.4c-0.1,0.1-0.2,0.2,0,0.3c0.1,0.9,0.3,1.8,0.4,2.7
		c-1.4,0.2-1.4,0.2-1.4-1c0-0.5,0.1-1.2-0.9-1c0,0.7,0,1.4,0,2.1c-0.4,0-0.8,0-1.1,0C62.7,59.4,62.7,57.6,62.7,55.7z M63.9,58
		c0.6,0.2,0.9-0.1,0.9-0.6c0-0.5-0.2-0.8-0.9-0.7C63.9,57.1,63.9,57.5,63.9,58z"/>
	<path class="st0" d="M145,57.5c-0.3,0-0.7,0-0.8,0c-0.3-0.4-0.5-0.9-0.7-0.9c-0.6,0-0.5,0.6-0.5,1c0,0.7,0,1.4,0,2.1
		c0,0.2,0.2,0.5,0.4,0.7c0,0.1,0.5-0.1,0.5-0.2c0-0.3,0-0.6-0.1-0.9c-0.1-0.3-0.2-0.5-0.2-0.8c0-0.1,0.4-0.2,0.6-0.2c1,0,1,0,1,1
		c0,0.6,0,1.3,0,1.9c-0.8,0.1-1.4,0.2-2.1,0.3c-0.8,0-1.2-0.5-1.2-1.2c-0.1-1.1-0.1-2.2,0-3.3c0.1-1.1,1-1.5,2.2-1.3
		C144.9,55.8,145.2,56.4,145,57.5z"/>
	<path class="st0" d="M105.9,61.2c0-1.9,0-3.6,0-5.4c0.8,0,1.6-0.1,2.3,0c0.6,0.1,0.9,0.6,0.9,1.2c0,1,0,1.9,0,2.9
		c0,0.7-0.5,1.2-1.2,1.3C107.3,61.3,106.6,61.2,105.9,61.2z M107.1,56.7c0,1.2,0,2.4,0,3.6c0.1,0,0.2,0,0.3,0c1-0.7,0.3-1.8,0.5-2.6
		C108,57.2,107.9,56.7,107.1,56.7z"/>
	<path class="st0" d="M79.1,57.3c-0.3,0-0.6,0-0.9,0c0,0-0.1-0.1-0.1-0.1c-0.2-0.2-0.3-0.4-0.5-0.6c0,0-0.4,0.2-0.4,0.3
		c0.1,0.3,0.2,0.6,0.3,0.8c0.1,0.2,0.4,0.3,0.6,0.4c0.8,0.4,1.1,1,1.1,1.9c0,0.9-0.5,1.4-1.4,1.6c0,0,0,0.1-0.1,0.2
		c0.4,0.2,1.1,0.4,0.6,1.1c-0.3,0.5-1.1,0.5-2-0.1c0.4,0,0.6,0,0.9,0c0.1,0,0.3-0.1,0.4-0.2c0-0.1-0.1-0.2-0.2-0.4
		c-0.1-0.2-0.3-0.4-0.5-0.8c-0.9-0.4-1.1-0.7-0.8-1.8c0.3,0,0.6,0,1,0c0,0.1,0,0.2,0.1,0.2c0.1,0.2,0.3,0.5,0.5,0.7
		c0,0,0.4-0.2,0.4-0.2c0-0.3-0.1-0.7-0.2-0.9c-0.3-0.3-0.7-0.5-1.1-0.8c-0.6-0.5-0.8-1.4-0.4-2.1c0.3-0.6,0.9-0.9,1.7-0.7
		C78.7,55.7,79.1,56.3,79.1,57.3z"/>
	<path class="st0" d="M70.3,55.8c0.7,0,1.3,0,2,0c0.7,0,1.2,0.4,1.2,1.1c0.1,1,0.1,2.1,0,3.1c0,0.8-0.5,1.2-1.3,1.2
		c-0.6,0-1.2,0-1.9,0C70.3,59.4,70.3,57.6,70.3,55.8z M71.5,56.7c0,1.2,0,2.3,0,3.5c0.1,0,0.1,0.1,0.2,0.1c0.2-0.2,0.5-0.4,0.6-0.7
		c0.1-0.8,0.1-1.6,0.1-2.4C72.3,56.9,72,56.6,71.5,56.7z"/>
	<path class="st0" d="M58.7,55.7c0.3,0,0.5,0,0.7,0c0.1,0,0.2,0,0.5,0.1c0,1.1,0,2.2,0,3.3c0,0.2-0.1,0.5,0,0.7
		c0.1,0.2,0.3,0.4,0.5,0.6c0.1-0.2,0.4-0.4,0.4-0.6c0-1,0-2.1,0-3.1c0-0.3,0-0.6,0-0.9c0.4,0,0.8,0,1.2,0c0,0.4,0,0.8,0,1.2
		c0,0.9,0,1.9,0,2.8c0,1-0.6,1.5-1.7,1.5c-1.1,0-1.6-0.5-1.6-1.5C58.7,58.5,58.7,57.2,58.7,55.7z"/>
	<path class="st0" d="M120,62.7c0.3,0,0.5,0,0.7,0c0.2,0,0.3-0.1,0.5-0.2c-0.1-0.1-0.2-0.3-0.2-0.4c-0.1-0.2-0.2-0.4-0.4-0.7
		c-1-0.5-1.1-0.8-0.9-1.9c0.3,0,0.6,0,1,0c0,0.1,0,0.2,0.1,0.3c0.1,0.2,0.3,0.4,0.5,0.6c0,0,0.4-0.1,0.4-0.2c0-0.3,0-0.6-0.1-0.8
		c-0.2-0.3-0.6-0.5-0.9-0.7c-0.5-0.4-0.9-0.8-0.9-1.5c0-1.1,0.5-1.6,1.6-1.6c1,0,1.5,0.6,1.4,1.7c-0.4,0-0.9,0.3-1.1-0.4
		c0-0.1-0.4-0.2-0.6-0.2c0,0.2-0.2,0.5-0.1,0.7c0.3,0.3,0.6,0.5,0.9,0.8c0.8,0.6,1.1,1.1,0.9,2.1c-0.1,0.8-0.7,1.1-1.5,1.3
		c0.5,0.4,1.3,0.6,0.7,1.3C121.4,63.2,120.6,63.2,120,62.7z"/>
	<path class="st0" d="M132.3,61.2c-0.5,0-0.8,0-1.2,0c-0.1-0.7-0.2-1.3-1.2-0.9c-0.1,0.3-0.1,0.6-0.2,0.9c-0.4,0-0.7,0-1.1,0
		c0.3-1.4,0.6-2.8,0.8-4.1c0-0.1,0.1-0.3,0.1-0.4c0.2-0.9,0.6-1.1,1.4-0.9c0.1,0,0.3,0.2,0.3,0.3C131.6,57.7,132,59.4,132.3,61.2z
		 M130.5,57.2c-0.1,0-0.1,0-0.2,0c-0.1,0.5-0.2,1-0.3,1.5c0,0.2,0.2,0.3,0.3,0.5c0.1-0.2,0.3-0.3,0.3-0.5
		C130.7,58.2,130.6,57.7,130.5,57.2z"/>
	<path class="st0" d="M113.3,61.2c-0.4,0-0.8,0-1.2,0c-0.1-0.3-0.2-0.6-0.3-1c-0.8-0.3-1.2,0.1-1.1,0.9c-0.4,0-0.8,0-1.3,0
		c0.3-1.5,0.6-3,1-4.5c0.2-0.9,0.3-1,1.3-0.9c0.2,0,0.4,0.2,0.4,0.4C112.6,57.8,113,59.4,113.3,61.2z M111.5,57.2
		c-0.1,0-0.1,0-0.2,0c-0.1,0.5-0.2,1.1-0.2,1.7c0,0.1,0.2,0.2,0.3,0.4c0.1-0.1,0.3-0.2,0.3-0.3C111.7,58.3,111.6,57.8,111.5,57.2z"
		/>
	<path class="st0" d="M86.3,60.2c0,0.2,0.1,0.3,0.1,0.4c0,0.2,0,0.4,0,0.6c-0.9,0-1.8,0-2.8,0c0-1.8,0-3.5,0-5.4c0.9,0,1.8,0,2.7,0
		c0,0.3,0,0.6,0,1c-0.5,0-1,0-1.5,0c0,0.4,0,0.7,0,1.1c0.5,0,0.9,0.1,1.4,0.1c0,0.3,0,0.6,0,1c-0.5,0-0.9,0-1.4,0c0,0.5,0,0.8,0,1.3
		C85.3,60.2,85.8,60.2,86.3,60.2z"/>
	<path class="st0" d="M57.1,61.2c-0.5,0-0.8,0-1.3,0c0.4-1.9-0.5-3.6-1.2-5.3c0.9-0.3,0.9-0.3,1.8,1.4c0.5-0.6,0.3-2.1,1.8-1.5
		C57.6,57.5,56.6,59.2,57.1,61.2z"/>
	<path class="st0" d="M68.7,61.2c-0.5,0-0.8,0-1.2,0c0-1.5,0-2.9,0-4.4c-0.4,0-0.6-0.1-1-0.1c0-0.3,0-0.6,0-1c1.1,0,2.1,0,3.2,0
		c0,0.3,0,0.6,0,1c-0.3,0-0.6,0.1-1,0.1C68.7,58.3,68.7,59.7,68.7,61.2z"/>
	<path class="st0" d="M95,56.9c0,1.4,0,2.9,0,4.3c-0.4,0-0.8,0-1.2,0c0-1.4,0-2.9,0-4.3c-0.3,0-0.6-0.1-0.9-0.1c0-0.3,0-0.6,0-1
		c1,0,2,0,3.1,0c0,0.3,0,0.6,0,0.9C95.7,56.8,95.4,56.8,95,56.9z"/>
	<path class="st0" d="M139.4,61.2c-0.9,0-1.7,0-2.6,0c0-1.8,0-3.6,0-5.4c0.4,0,0.7,0,1.1,0c0,1.4,0,2.8,0,4.3c0.6,0,1,0.1,1.5,0.1
		C139.4,60.6,139.4,60.9,139.4,61.2z"/>
	<path class="st0" d="M97.8,61.2c-0.5,0-0.8,0-1.2,0c0-1.8,0-3.6,0-5.4c1.1-0.3,1.2-0.2,1.2,0.9C97.8,58.2,97.8,59.7,97.8,61.2z"/>
	<path class="st0" d="M79.8,55.8c0.4,0,0.7,0,1.1,0c0,1.8,0,3.6,0,5.4c-0.4,0-0.7,0-1.1,0C79.8,59.4,79.8,57.6,79.8,55.8z"/>
	<path class="st0" d="M92.2,55.8c0,1.8,0,3.6,0,5.4c-0.4,0-0.7,0-1.1,0c0-1.8,0-3.6,0-5.4C91.4,55.8,91.8,55.8,92.2,55.8z"/>
	<path class="st0" d="M117.8,55.8c0.4,0,0.7,0,1.1,0c0,1.8,0,3.6,0,5.4c-0.4,0-0.7,0-1.1,0C117.8,59.4,117.8,57.6,117.8,55.8z"/>
	<path class="st0" d="M74.3,55.8c0.4,0,0.7,0,1.1,0c0,1.8,0,3.6,0,5.4c-0.4,0-0.7,0-1.1,0C74.3,59.4,74.3,57.6,74.3,55.8z"/>
	<path class="st0" d="M141,61.2c-0.4,0-0.7,0-1.1,0c0-1.8,0-3.6,0-5.4c0.3,0,0.7,0,1.1,0C141,57.6,141,59.4,141,61.2z"/>
	<path class="st0" d="M147,61.2c-0.4,0-0.7,0-1.1,0c0-1.8,0-3.6,0-5.4c0.4,0,0.7,0,1.1,0C147,57.6,147,59.4,147,61.2z"/>
	<path class="st0" d="M144.8,53.9c-0.1,1.1-0.5,1.4-1.2,1.3c-0.8,0-1.1-0.3-1.1-1.2C143.2,54.4,143.9,54.6,144.8,53.9z"/>
	<path class="st0" d="M89.9,54c-0.1,0.9-0.5,1.2-1.3,1.2c-0.8,0-1-0.3-1-1.2c0.4,0.1,0.7,0.4,1.1,0.4C89.1,54.4,89.4,54.2,89.9,54z"
		/>
	<path class="st0" d="M96.6,54.1c0.5,0,0.8,0,1.1,0c0,0.3,0,0.6,0,1c-0.4,0-0.7,0-1.1,0C96.6,54.7,96.6,54.4,96.6,54.1z"/>
	<path class="st0" d="M91.1,55.1c0-0.3,0-0.6,0-0.9c0.4,0,0.7,0,1.1,0c0,0.3,0,0.6,0,0.9C91.8,55.1,91.5,55.1,91.1,55.1z"/>
</g>
<path class="st0" d="M41,54.4c-4,3.7-8.6,6.5-13.8,8.2c-4.5,1.4-9,2-13.6,1.1C9,62.9,5.6,60.5,3.4,56.5c-1.3-2.4-2-5-2.4-7.7
	c0,0.1,0,0.1,0,0.2c0.2,2.8,0.8,5.5,2,8.1c2.2,5,5.8,8.4,11.1,9.9c3.5,1,7,0.9,10.6,0.5c5.1-0.6,9.9-2.1,14.3-4.5
	c4.2-2.3,7.9-5.2,11.2-8.6H41z"/>
</svg>
