<?xml version="1.0" encoding="utf-8"?>
<!-- Generator: Adobe Illustrator 19.2.1, SVG Export Plug-In . SVG Version: 6.00 Build 0)  -->
<svg version="1.1" id="Layer_1" xmlns="http://www.w3.org/2000/svg" xmlns:xlink="http://www.w3.org/1999/xlink" x="0px" y="0px"
	 viewBox="0 0 412 188.1" style="enable-background:new 0 0 412 188.1;" xml:space="preserve">
<style type="text/css">
	.st0{fill:#FFFFFF;}
</style>
<path class="st0" d="M354.7,102.5c0,5.5,0,11,0,16.6c0,3.9-0.7,7.7-3,11.2c-3.3,5.1-8.4,8-15.1,8.9c-4.6,0.6-9.1,0.5-13.4-0.9
	c-8.3-2.7-12.4-8.1-13.5-15.2c-0.3-1.9-0.4-3.9-0.4-5.8c0-10.8-0.1-21.6,0.1-32.4c0.1-5.4,1.7-10.5,6.6-14.4
	c3.2-2.6,7.1-4.1,11.5-4.5c5.1-0.5,10.2-0.4,15,1.4c7.4,2.8,11.2,8,11.8,14.6c0.6,6.9,0.4,13.8,0.6,20.7
	C354.8,102.5,354.8,102.5,354.7,102.5z M337.2,102.6c0-5.7,0.1-11.3,0-17c0-1.7-0.4-3.4-0.9-5c-0.5-1.6-2.2-2.3-4.1-2.3
	c-2,0-3.6,0.7-4.3,2.3c-0.5,1.2-0.9,2.5-0.9,3.8c-0.1,12.1-0.1,24.2,0,36.3c0,1.1,0.3,2.3,0.7,3.4c0.7,1.9,2.3,2.8,4.6,2.8
	c2.2,0,3.8-0.9,4.3-2.8c0.5-1.5,0.7-3.1,0.7-4.7C337.2,113.7,337.2,108.1,337.2,102.6z M390.7,68.6c0,16.6,0,33.2,0,49.9
	c0,1.5-0.1,3.1-0.4,4.6c-0.3,2-1.8,3.1-4.3,3.2c-2.9,0.2-4.6-0.6-5.1-2.8c-0.4-1.5-0.6-3.1-0.6-4.7c0-16.7,0-33.4,0-50.1
	c0-0.6,0-1.2,0-1.7c-6,0-11.7,0-17.5,0c0,0.7,0,1.2,0,1.8c0,16.3,0,32.7,0,49c0,1.8,0.1,3.5,0.3,5.3c1,6.2,4.2,11.2,10.9,14.3
	c4.7,2.2,9.9,2.5,15.2,2c4.6-0.4,8.7-1.9,12.1-4.7c5.1-4.2,6.8-9.5,6.8-15.3c0-17,0-34,0-51c0-0.5-0.1-1-0.1-1.4
	c-5.9,0-11.6,0-17.5,0C390.7,67.5,390.7,68,390.7,68.6z M102.9,125.5c-4.1,0-8,0-11.8,0c-0.3,0-0.9,0.6-0.9,1
	c-0.6,3.9-1.1,7.7-1.7,11.7c-5.8,0-11.5,0-17.5,0c0.4-2.1,0.7-4.1,1.1-6.1c2.2-10.9,4.4-21.8,6.5-32.7c2.1-10.5,4.2-21.1,6.4-31.6
	c0.1-0.4,0.8-0.9,1.2-0.9c7-0.1,14.1,0,21.1-0.1c0.9,0,1.3,0.4,1.4,1c1.7,8.4,3.3,16.8,5,25.2c1.7,8.5,3.4,17.1,5.1,25.6
	c1.3,6.3,2.5,12.5,3.8,18.8c0,0.2,0,0.5,0,0.9c-0.6,0-1.1,0-1.7,0c-4.9,0-9.7-0.1-14.6,0c-1.6,0-2.1-0.4-2.2-1.7
	C103.9,133,103.4,129.4,102.9,125.5z M97.1,78.2c-0.2,0-0.3,0-0.5,0c-0.3,1.9-0.5,3.8-0.8,5.7c-0.6,4.8-1.2,9.7-1.9,14.5
	c-0.6,4.5-1.2,9-1.7,13.5c0,0.3,0.4,1,0.7,1c2.7,0.1,5.4,0,8.2,0C99.8,101.2,98.4,89.7,97.1,78.2z M220.8,111.8
	c0.3-0.4,0.6-0.9,0.9-1.3c6.6-9.2,12-18.9,15.1-29.4c1.1-3.9,1.8-7.9,2.6-11.9c0.1-0.7,0.2-1.3-1.1-1.3c-5,0-10.1,0-15.1,0
	c-0.8,0-1.1,0.3-1.2,1c-0.5,4.1-0.9,8.2-1.6,12.3c-1.7,9.6-4.5,19.1-8.9,28.1c-0.3,0.6-0.4,1.3-0.4,1.9c0,4.1,0,8.2,0,12.3
	c0,1.1,0.3,1.4,1.7,1.4c5.9-0.1,11.8,0,17.8,0c2.7,0,2.7,0,2.7,2.4c0,3.2,0,6.4,0,9.6c0,1,0.2,1.4,1.6,1.4c4.4-0.1,8.7-0.1,13.1,0
	c1.2,0,1.5-0.3,1.5-1.3c-0.1-2.8,0-5.7,0-8.5c0-3.5,0-3.5,4.2-3.6c1.2,0,1.6-0.3,1.5-1.3c-0.1-2.7,0-5.4,0-8.1c0-3.1,0-3.1-3.7-3.1
	c-1.6,0-2.1-0.4-2.1-1.7c0.1-8.3,0-16.5,0-24.8c0-4,0-3.9-4.8-3.8c-1,0-1.4,0.3-1.7,1.2c-1.8,6.5-4.8,12.6-9,18.3
	c-0.4,0.6-0.7,1.4-0.7,2.1c-0.1,2.3-0.1,4.6,0,7c0.1,1.4-0.4,1.9-2.2,1.9c-2.9-0.1-5.8,0-8.6,0c-0.5,0-1.1-0.1-1.7-0.1
	C220.8,112,220.7,111.9,220.8,111.8z M289.9,138.2c0-0.6,0-1.2,0-1.7c0-8.8,0-17.6,0-26.5c0-0.8,0.1-1.6,0.4-2.3
	c4.5-13,9-26.1,13.5-39.1c0.2-0.6,0.3-1.1,0.5-1.8c-6,0-11.9,0-17.8,0c-1.7,7.9-3.4,15.8-5.1,23.7c-0.1,0-0.3,0-0.4,0
	c-1.6-7.9-3.2-15.7-4.8-23.6c-6.1,0-12,0-18.1,0c0.1,0.5,0.2,0.9,0.4,1.3c4,12.1,8,24.3,12.1,36.4c1.2,3.6,1.9,7.2,1.8,10.9
	c-0.2,7,0,14,0,21c0,0.5,0,1.1,0,1.7C278.4,138.2,284.1,138.2,289.9,138.2z M170.5,138.2c12.3,0,24.4,0,36.5,0c0-4.5,0-8.9,0-13.4
	c-0.7,0-1.3,0-1.9,0c-5,0-10,0-14.9,0c-2.3,0-2.3,0-2.3-1.9c0-18.1,0-36.1,0-54.2c0-0.6,0-1.2,0-1.8c-5.9,0-11.6,0-17.3,0
	C170.5,90.8,170.5,114.5,170.5,138.2z M164.5,138.2c0-4.5,0-8.9,0-13.4c-0.7,0-1.4,0-2,0c-5,0-10.1,0-15.1,0c-2.2,0-2.2,0-2.2-1.8
	c0-12.8,0-25.5,0-38.3c0-5.4,0-10.9,0-16.3c0-1.1-0.3-1.5-1.8-1.5c-4.6,0.1-9.3,0-14,0c-0.5,0-1,0.1-1.5,0.1c0,23.8,0,47.5,0,71.3
	C140.3,138.2,152.4,138.2,164.5,138.2z M10.4,117.7c2.4-6,4.9-12,7.3-18.1c0.4-1,0.9-1.6,2-2c4.5-1.8,9.1-3.6,13.6-5.3
	c2.3-0.9,4.6-1.6,7.2-2.5c-2.7-2-5.1-3.9-7.6-5.6c-2.5-1.7-5.2-3.3-8-5c3.5-9.6,7.1-19.4,10.7-29.4c-0.3,0.3-0.4,0.6-0.6,0.8
	c-6.1,6.9-12,14-17.2,21.8c-0.7,1-1.2,2.6-2.1,3c-1,0.4-2.4-0.4-3.6-0.7c-2.5-0.5-5.1-1.1-7.8-0.8c0,0.5,0,0.9,0,1.4
	C4.7,81.1,5.2,87,5.6,92.9c0,0.5-0.1,1-0.2,1.5c-1.1,3-2.4,6-3.3,9c-0.8,2.6-1.4,5.3-2,7.9c0.1,0,0.2,0.1,0.3,0.1
	c2.2-2.6,4.1-5.5,7-7.8c0.9,5.1,1.7,9.9,2.6,15.1C10.2,118.1,10.3,117.9,10.4,117.7z M180.9,58.4c0.3-3.1,0.7-6.1,1-9.2
	c0.6-7,0.2-14-1.6-20.9c-2.6-9.7-8-17.3-17.3-21.7c-3.9-1.9-8.1-2.7-12.3-3.6c-1-0.2-1.3,0.1-1.6,0.9c-1.3,3.7-2.6,7.3-4,11
	c-0.1,0.3-0.2,0.6-0.3,1c0.5,0.1,0.9,0.2,1.3,0.3c5.6,1.1,11.1,2.7,16.3,5.4c10.9,5.6,17.1,14.5,18.2,26.7c0.3,3.3,0,6.7,0,10.1
	C180.7,58.4,180.8,58.4,180.9,58.4z M49.8,78.6c0.2-0.6,0.3-0.9,0.4-1.2c2.1-6,4.9-11.6,8.4-16.8c0.5-0.7,1.2-1.3,2-1.7
	c5.4-2.5,10.9-4.9,16.4-7.3c0.4-0.2,0.8-0.4,1.2-0.6c0-0.1,0-0.2,0-0.4c-4.8-0.4-9.5-0.8-14.5-1.3c2.8-5.6,7-10,10.9-14.5
	c-0.2,0.1-0.4,0.2-0.6,0.3c-5.7,4.6-11.3,9.1-17,13.7c-0.6,0.5-1.5,0.9-2.2,1c-2.7,0.5-5.4,0.9-8.1,1.3c-0.9,0.1-1.1,0.6-1.1,1.4
	c-0.1,2.1-0.2,4.2-0.4,6.3c-0.1,0.6-0.3,1.2-0.6,1.6c-3.9,4.3-7,9.1-9.8,14.1c-0.1,0.3-0.3,0.5-0.4,0.8c0.1,0,0.1,0.1,0.2,0.1
	c4.1-2.8,8.2-5.6,12.4-8.6C47.9,70.8,48.8,74.5,49.8,78.6z M40.6,45.2c4.4-3.5,8.7-7.1,13.1-10.6c2.6-2.1,1.7-2.1,4.3,0.1
	c1.7,1.5,3.4,2.9,5.2,4.5c1-3.9,1.9-7.7,2.9-11.4c0.2-0.6,0.5-1.2,1-1.6c2.7-2.2,5.4-4.5,8.2-6.6c1.7-1.3,3.4-2.5,5.2-3.8
	c0,0,0-0.1-0.1-0.1c-4.1,1.2-8.3,2.5-12.6,3.8c0.1-2.6,0.3-5,0.4-7.7c-2.3,2.5-4.3,4.8-6.4,7c-1.7,1.7-3.3,3.5-5.4,4.7
	c-3.4,2-7.1,3.5-10.6,5.1c-0.3,0.1-0.5,0.3-1,0.6c1.5,0.3,2.9,0.6,4.2,0.9c1.3,0.3,1.5,0.9,0.8,2.1c-0.2,0.3-0.3,0.5-0.5,0.7
	c-2.9,4-5.9,8-8.8,12C40.5,45.1,40.5,45.1,40.6,45.2z M72.5,28.2c3.5-0.9,7-1.7,10.8-2.6c-0.9,4-1.7,7.8-2.6,11.8
	c2.4-2.8,4.9-5.3,6.9-8.1c1.7-2.3,3.6-3,6.3-2.5c2.1,0.4,4.2,0.3,6.5,0.4C99,25,97.7,23,96.4,21c-0.5-0.7-0.5-1.2,0.1-1.9
	c2.2-2.1,4.3-4.3,6.4-6.5c0.4-0.4,0.7-0.7,1.1-1.1c-0.1-0.1-0.1-0.2-0.2-0.3c-3.7,1.2-7.4,2.5-11,3.8c-0.8,0.3-1.3,0.2-2-0.3
	c-1.5-1.1-3-2.1-4.6-3.2c-0.3,1-0.6,1.8-0.6,2.6c-0.2,3.6-2.1,5.9-5.2,7.7c-2.9,1.7-5.4,4-8.1,6.1C72.4,28,72.4,28.1,72.5,28.2z
	 M106.3,15.1c2.2-1.3,4.5-2.6,6.7-4c1.7-1.1,3.4-1.1,5.1-0.1c1.3,0.7,2.5,1.5,3.9,2.4c-0.1-1.5-0.1-3-0.4-4.5
	c-0.4-1.6,0.2-2.5,1.6-3.2c1.5-0.8,3.1-1.6,4.7-2.5c-3.2,0-6.9,1.6-8.2-3.2c-1.3,1.2-2.6,2.2-3.7,3.3c-0.9,0.9-1.8,1.2-3,1.4
	c-2.6,0.4-5.1,1.1-8,1.7c2.4,0.6,4.5,1,6.9,1.6c-2.1,2.5-3.8,4.7-5.6,6.9C106.2,15,106.3,15,106.3,15.1z M141.1,7.3
	c-1.1-0.4-2.2-0.8-3.3-1.2c-0.7-0.2-1.2-0.4-1.4-1.2c-0.3-1-1.1-1.7-2.3-1.8c-0.1,0.3-0.3,0.6-0.3,0.9c-0.2,1.3-0.9,1.9-2.3,1.7
	c-1-0.1-2.1,0.2-3.1,0.4c-0.1,0.1-0.1,0.3-0.2,0.4c3.7,0.1,6,1.4,5.3,5.6c1.2-1.2,2-2.5,3.1-3.6c0.4-0.4,1.1-0.7,1.7-0.8
	c0.9-0.1,1.9,0,2.9,0C141,7.5,141,7.4,141.1,7.3z M277.2,160.8c0.5,2.5,0.9,4.9,1.5,7.4c0.2,0.9,0.2,1.9,1.7,1.9
	c1.3-0.1,1.4-0.8,1.6-1.8c0.5-2.7,1.1-5.4,1.7-8.1c0.1,0,0.2,0,0.3,0.1c0,3.2,0,6.4,0,9.7c1,0,1.9,0,2.8,0c0-5.1,0-10,0-15.2
	c-0.9,0-1.6,0.1-2.3,0c-1.7-0.2-2.6,0.3-2.8,2.2c-0.2,2-0.8,3.9-1.2,5.8c-0.8-1.4-1.1-2.9-1.3-4.3c-0.8-4.1-0.8-4.1-5.1-3.5
	c-0.1,0-0.1,0.1-0.3,0.2c0,4.9,0,9.9,0,14.8c1,0,1.9,0,3,0c0-3.1,0-6.1,0-9C277,160.9,277.1,160.8,277.2,160.8z M355.6,154.9
	c-1.6,0-3.1,0-4.6,0c-0.6,2.6-1.2,5.2-1.7,7.7c-0.2,0-0.3,0-0.5-0.1c-0.6-2.6-1.1-5.1-1.6-7.6c-1.7,0-3.2,0-4.7,0c0,5.1,0,10,0,15
	c1,0,2,0,3,0c0-3.4,0-6.6,0-9.9c0.9,2.6,1.4,5.3,2,7.9c0.2,1,0.1,2.1,1.7,2.1c1.5,0,1.4-1.1,1.6-2c0.6-2.7,1.2-5.3,1.7-8
	c0.1,0,0.2,0.1,0.3,0.1c0,3.3,0,6.5,0,9.8c1,0,1.9,0,2.9,0C355.6,164.9,355.6,159.9,355.6,154.9z M371.7,169.9c0-2.4,0-4.6,0-6.8
	c0.9,1.4,1.4,2.9,1.9,4.4c0.9,2.9,1.1,3,4.1,2.2c0-4.9,0-9.8,0-14.8c-1.1,0-2,0-2.9,0c0,2.4,0,4.6,0,6.9c-0.8-1.4-1.3-2.9-1.8-4.4
	c-0.9-3-0.9-3-4.2-2.4c0,4.9,0,9.8,0,14.8C369.9,169.9,370.8,169.9,371.7,169.9z M321.8,161.4c-0.8-1.4-1.2-2.8-1.7-4.2
	c-0.9-2.8-1-2.9-4.1-2.1c0,4.9,0,9.8,0,14.8c1,0,1.9,0,2.9,0c0-2.5,0-4.8,0-7.2c0.8,1.5,1.3,3.1,1.8,4.7c0.9,3,1,3,4.2,2.3
	c0-4.9,0-9.8,0-14.8c-1,0-1.9,0-3.1,0C321.8,157.3,321.8,159.4,321.8,161.4z M247.1,164.6c0.2,0.7,0.2,1.6,0.1,2.3
	c-0.1,0.3-1.2,0.7-1.3,0.6c-0.5-0.5-1-1.2-1-1.8c-0.1-1.9-0.1-3.8,0-5.7c0-1.1-0.6-2.7,1.2-2.9c0.6,0,1.2,1.4,2.1,2.5
	c0.5,0,1.5,0,2.5,0c0.3-3.4-0.8-5-3.5-5.3c-3.6-0.4-5.3,0.8-5.6,4.1c-0.2,2.9-0.1,5.9,0.2,8.9c0.2,2.2,1.7,3.2,3.9,3
	c1.7-0.2,3.4-0.5,5.2-0.8c0-2.4,0-5,0-7.7c-1.4,0-2.8,0-5,0C246.4,163.1,246.9,163.8,247.1,164.6z M174.3,154.8c1.7,0,3.2,0,4.7,0
	c3.8,0.1,5.6,3.2,3.7,6.6c-0.2,0.4-0.5,0.7-0.1,1c0.4,2.5,0.8,5,1.2,7.5c-3.8,0.6-3.8,0.6-3.9-2.8c0-1.4,0.3-3.2-2.4-2.9
	c0,1.9,0,3.8,0,5.8c-1.2,0-2.1,0-3.2,0C174.3,164.9,174.3,160,174.3,154.8z M177.5,161.1c1.7,0.5,2.4-0.3,2.4-1.7
	c0-1.4-0.7-2.2-2.4-1.9C177.5,158.6,177.5,159.8,177.5,161.1z M399.9,154.5c-3.4-0.7-5.8,0.6-6,3.5c-0.3,3-0.2,6.1,0,9.1
	c0.1,1.9,1.3,3.4,3.4,3.3c1.9-0.1,3.8-0.5,5.9-0.8c0-1.7,0-3.4,0-5.2c0-2.7,0-2.8-2.8-2.7c-0.6,0-1.7,0.4-1.7,0.6
	c0,0.7,0.5,1.4,0.6,2.1c0.2,0.8,0.3,1.7,0.2,2.5c0,0.2-1.2,0.6-1.3,0.5c-0.5-0.5-1-1.2-1-1.9c-0.1-1.9-0.1-3.8,0-5.7
	c0-1.1-0.4-2.7,1.3-2.8c0.6,0,1.2,1.4,2,2.6c0.4,0,1.3,0,2.3,0C403.2,156.8,402.3,155,399.9,154.5z M294,170c0-5.2,0-10,0-15
	c2.2,0,4.4-0.2,6.5,0.1c1.8,0.2,2.5,1.7,2.6,3.4c0.1,2.7,0.1,5.4,0,8c0,2.1-1.3,3.3-3.3,3.5C298,170.1,296.1,170,294,170z
	 M297.5,157.5c0,3.4,0,6.6,0,9.9c0.3,0,0.5,0.1,0.8,0.1c2.8-1.8,1-4.9,1.4-7.3C299.9,158.8,299.7,157.4,297.5,157.5z M216.4,154.5
	c-2.4-0.4-4.1,0.4-4.9,2.1c-0.9,2-0.5,4.4,1.2,5.8c1,0.8,2.2,1.4,3,2.3c0.5,0.6,0.6,1.6,0.7,2.4c0,0.2-1,0.7-1.1,0.6
	c-0.5-0.5-0.9-1.2-1.3-1.9c-0.1-0.2-0.1-0.4-0.2-0.6c-0.9,0-1.8,0-2.7,0c-0.6,3-0.1,3.9,2.4,5.1c0.6,1,1,1.6,1.4,2.2
	c0.2,0.3,0.5,0.8,0.5,1c-0.1,0.3-0.6,0.5-1,0.6c-0.6,0.1-1.2,0-2.4,0c2.4,1.5,4.6,1.5,5.4,0.1c1.2-1.9-0.5-2.5-1.7-3.1
	c0.1-0.3,0.2-0.5,0.3-0.5c2.5-0.4,3.7-1.9,3.8-4.3c0.1-2.3-0.8-4.1-2.9-5.2c-0.6-0.3-1.2-0.6-1.6-1.1c-0.5-0.6-0.7-1.4-0.9-2.2
	c0-0.2,1-0.8,1-0.7c0.5,0.5,0.9,1.1,1.3,1.7c0.1,0.2,0.3,0.3,0.3,0.4c0.9,0,1.8,0,2.6,0C219.7,156.3,218.6,154.8,216.4,154.5z
	 M195.2,154.9c1.9,0,3.7,0,5.5,0c2,0.1,3.3,1.1,3.4,3.1c0.2,2.9,0.2,5.8,0.1,8.7c-0.1,2.2-1.4,3.3-3.6,3.4c-1.7,0.1-3.4,0-5.3,0
	C195.2,164.9,195.2,159.9,195.2,154.9z M198.5,157.6c0,3.2,0,6.5,0,9.7c0.2,0.1,0.4,0.3,0.6,0.4c0.5-0.6,1.5-1.2,1.5-1.8
	c0.2-2.2,0.2-4.5,0.1-6.7C200.7,157.9,199.9,157.2,198.5,157.6z M163.1,166.2c0.1,2.9,1.5,4.2,4.4,4.2c3,0,4.6-1.3,4.7-4.2
	c0.1-2.6,0-5.2,0-7.8c0-1.2,0-2.3,0-3.5c-1.4,0-2.3,0-3.5,0c0,0.9,0,1.7,0,2.5c0,2.9,0,5.8-0.1,8.7c0,0.5-0.7,1-1,1.6
	c-0.4-0.5-1-0.9-1.3-1.5c-0.2-0.5-0.1-1.3-0.1-1.9c0-3.1,0-6.2,0-9.3c-0.6-0.1-0.9-0.2-1.3-0.2c-0.6,0-1.1,0-2.1,0
	C163.1,158.8,163,162.5,163.1,166.2z M338.2,174.3c1.6-2-0.5-2.6-1.9-3.6c2.3-0.5,3.9-1.3,4.3-3.5c0.4-2.8-0.2-4.4-2.5-6
	c-0.9-0.6-1.9-1.3-2.6-2.1c-0.3-0.3,0.1-1.2,0.2-1.8c0.6,0.2,1.6,0.4,1.7,0.7c0.5,2.1,1.9,1.3,3.1,1.2c0.2-3.2-1.1-4.7-4-4.8
	c-2.9-0.1-4.4,1.4-4.4,4.4c0,1.9,0.9,3.2,2.4,4.2c0.9,0.6,1.9,1.1,2.5,1.9c0.4,0.5,0.4,1.4,0.3,2.1c0,0.3-1,0.7-1.1,0.6
	c-0.5-0.5-0.9-1.1-1.3-1.7c-0.1-0.2-0.1-0.5-0.2-0.8c-1,0-1.9,0-2.7,0c-0.5,3.1-0.1,3.8,2.6,5.2c0.4,0.8,0.7,1.4,1,2
	c0.2,0.4,0.4,0.8,0.6,1.1c-0.4,0.2-0.8,0.4-1.3,0.5c-0.5,0.1-0.9,0-1.9,0C335,175.5,337.2,175.5,338.2,174.3z M367.5,170
	c-1.3,0-2.2,0-3.3,0c-0.2-1.9-0.6-3.6-3.3-2.6c-0.2,0.8-0.4,1.7-0.6,2.6c-1,0-2,0-3.2,0c0.8-3.9,1.6-7.7,2.3-11.5
	c0.1-0.4,0.2-0.8,0.3-1.2c0.5-2.4,1.6-3.1,3.9-2.4c0.3,0.1,0.8,0.5,0.9,0.8C365.5,160.3,366.5,165.1,367.5,170z M362.5,158.9
	c-0.2,0-0.3,0-0.5-0.1c-0.3,1.4-0.6,2.8-0.7,4.3c0,0.4,0.5,0.9,0.8,1.4c0.3-0.5,0.9-0.9,0.9-1.4C363,161.7,362.7,160.3,362.5,158.9z
	 M314.7,170c-1.2,0-2.1,0-3.2,0c-0.2-0.8-0.5-1.8-0.8-2.7c-2.3-0.7-3.3,0.1-3,2.6c-1.2,0-2.2,0-3.5,0c0.9-4.3,1.8-8.5,2.6-12.6
	c0.5-2.6,0.9-2.8,3.5-2.4c0.5,0.1,1.2,0.6,1.2,1C312.7,160.4,313.7,165.1,314.7,170z M309.7,158.8c-0.2,0-0.3,0.1-0.5,0.1
	c-0.2,1.5-0.5,3-0.6,4.6c0,0.3,0.6,0.6,1,1c0.3-0.3,0.8-0.7,0.8-1C310.2,162,309.9,160.4,309.7,158.8z M235.3,167.1
	c0-1.2,0-2.2,0-3.5c1.4,0,2.7,0,4,0c0-1.1,0-1.9,0-2.8c-1.4-0.1-2.6-0.2-4-0.3c0-1,0-1.9,0-3c1.5,0,2.9,0,4.2,0c0-1,0-1.9,0-2.7
	c-2.6,0-5.1,0-7.5,0c0,5.1,0,10.1,0,15c2.7,0,5.2,0,7.8,0c0-0.7,0-1.2,0-1.6c0-0.3-0.1-0.5-0.2-1.1
	C238.2,167.1,236.8,167.1,235.3,167.1z M161.7,155.1c-4.3-1.7-3.6,2.4-5,4.1c-2.6-4.7-2.6-4.7-5-3.9c1.8,4.8,4.3,9.4,3.2,14.8
	c1.4,0,2.3,0,3.7,0C157.3,164.4,159.9,159.8,161.7,155.1z M190.7,157.8c1.1-0.1,1.9-0.2,2.7-0.2c0-0.9,0-1.7,0-2.7c-3,0-5.8,0-8.8,0
	c0,1,0,1.8,0,2.7c0.9,0.1,1.7,0.2,2.7,0.3c0,4.1,0,8,0,12.1c1.2,0,2.1,0,3.3,0C190.7,165.8,190.7,161.8,190.7,157.8z M266.5,157.6
	c0-0.9,0-1.7,0-2.6c-2.9,0-5.7,0-8.6,0c0,1,0,1.8,0,2.7c0.8,0.1,1.6,0.1,2.5,0.2c0,4.1,0,8.1,0,12.1c1.2,0,2.2,0,3.3,0
	c0-4.1,0-8,0-12C264.8,157.8,265.6,157.7,266.5,157.6z M387,167.3c-1.4-0.1-2.7-0.1-4.2-0.2c0-4.2,0-8.1,0-12.1c-1.2,0-2.1,0-3.1,0
	c0,5.1,0,10,0,15c2.5,0,4.9,0,7.3,0C387,169,387,168.2,387,167.3z M271.6,157.6c0-3.2-0.1-3.2-3.3-2.5c0,4.9,0,9.9,0,14.9
	c1.1,0,2,0,3.3,0C271.6,165.7,271.6,161.7,271.6,157.6z M221.6,169.9c1.1,0,2.1,0,3.1,0c0-5.1,0-10,0-15c-1.1,0-2.1,0-3.1,0
	C221.6,160,221.6,165,221.6,169.9z M252.9,154.9c0,5.1,0,10,0,15c1.1,0,2,0,3.1,0c0-5.1,0-10,0-15
	C254.9,154.9,253.9,154.9,252.9,154.9z M327.2,169.9c1.1,0,2,0,3,0c0-5.1,0-10,0-15.1c-1,0-1.9,0-3,0
	C327.2,160.1,327.2,165,327.2,169.9z M206.2,170c1.1,0,2,0,3,0c0-5.1,0-10,0-15.1c-1,0-1.9,0-3,0C206.2,160.1,206.2,165,206.2,170z
	 M391.7,155c-1.1,0-2,0-3,0c0,5.1,0,10,0,15c1,0,1.9,0,3,0C391.7,164.9,391.7,159.9,391.7,155z M408.2,155c-1.1,0-2,0-3,0
	c0,5.1,0,10,0,15c1.1,0,2,0,3,0C408.2,164.9,408.2,159.9,408.2,155z M395.5,150c0.2,2.6,1,3.4,3.2,3.4c2.1,0,3-0.8,3.4-3.7
	C399.7,151.7,397.6,151.2,395.5,150z M246.4,151.1c-1,0-2-0.6-3-1c0,2.4,0.7,3.1,2.8,3.3c2.2,0.1,3.3-0.7,3.5-3.3
	C248.4,150.5,247.4,151.1,246.4,151.1z M268.3,153c1.1,0,2.1,0,3.1,0c0-1,0-1.8,0-2.7c-1,0-1.9,0-3.1,0
	C268.3,151.2,268.3,152,268.3,153z M256,153c0-1,0-1.8,0-2.6c-1.1,0-2.1,0-3.1,0c0,0.9,0,1.7,0,2.6C254,153,255,153,256,153z
	 M113.8,151c-11.1,10.3-23.8,18.2-38.4,22.7c-12.4,3.8-25,5.5-37.9,3.2c-12.4-2.2-21.9-8.9-28-20c-3.7-6.7-5.6-13.9-6.7-21.4
	c0,0.2,0,0.3,0,0.5c0.7,7.8,2.4,15.3,5.4,22.5c6,14,16.1,23.4,30.9,27.5c9.7,2.7,19.5,2.6,29.4,1.5c14.1-1.6,27.4-5.9,39.8-12.6
	c11.8-6.3,22-14.4,31.2-23.8H113.8z"/>
</svg>
