<svg id="SvgjsSvg1026" xmlns="http://www.w3.org/2000/svg" version="1.1" xmlns:xlink="http://www.w3.org/1999/xlink" xmlns:svgjs="http://svgjs.com/svgjs" width="70" height="70"><defs id="SvgjsDefs1027"><filter id="SvgjsFilter1029" width="200%" height="200%" x="-50%" y="-50%"><feGaussianBlur id="SvgjsFeGaussianBlur1030" stdDeviation="3.5 " result="SvgjsFeGaussianBlur1030Out" in="SourceGraphic"></feGaussianBlur></filter></defs><path id="SvgjsPath1028" d="M1533 393C1548.46 393 1561 405.536 1561 421C1561 436.464 1548.46 449 1533 449C1517.54 449 1505 436.464 1505 421C1505 405.536 1517.54 393 1533 393Z " fill="#000000" fill-opacity="0.5" filter="url(#SvgjsFilter1029)" transform="matrix(1,0,0,1,-1498,-386)"></path><path id="SvgjsPath1031" d="M1533 389C1548.46 389 1561 401.536 1561 417C1561 432.464 1548.46 445 1533 445C1517.54 445 1505 432.464 1505 417C1505 401.536 1517.54 389 1533 389Z " fill="#48e5e7" transform="matrix(1,0,0,1,-1498,-386)"></path><path id="SvgjsPath1032" d="M1531.97 407.288C1532.4 406.886 1533.08 406.886 1533.51 407.288C1533.93 407.677 1533.93 408.321 1533.51 408.71000000000004L1525.7 415.985L1544.91 415.985C1545.51 415.985 1546 416.43100000000004 1546 416.988C1546 417.548 1545.51 418.007 1544.91 418.007L1525.7 418.007L1533.51 425.269C1533.93 425.67 1533.93 426.32 1533.51 426.704C1533.08 427.106 1532.4 427.106 1531.97 426.704L1522.32 417.708C1521.8999999999999 417.319 1521.8999999999999 416.675 1522.32 416.286Z " fill="#ffffff" transform="matrix(1,0,0,1,-1498,-386)"></path></svg>