<svg id="SvgjsSvg1019" xmlns="http://www.w3.org/2000/svg" version="1.1" xmlns:xlink="http://www.w3.org/1999/xlink" xmlns:svgjs="http://svgjs.com/svgjs" width="70" height="70.0001"><defs id="SvgjsDefs1020"><filter id="SvgjsFilter1022" width="200%" height="200%" x="-50%" y="-50%"><feGaussianBlur id="SvgjsFeGaussianBlur1023" stdDeviation="3.5 " result="SvgjsFeGaussianBlur1023Out" in="SourceGraphic"></feGaussianBlur></filter></defs><path id="SvgjsPath1021" d="M871 64.9999C886.464 64.9999 899 77.5358 899 92.9998C899 108.464 886.464 121 871 121C855.536 121 843 108.464 843 92.9998C843 77.5358 855.536 64.9999 871 64.9999Z " fill="#000000" fill-opacity="0.5" filter="url(#SvgjsFilter1022)" transform="matrix(1,0,0,1,-836,-57.49995)"></path><path id="SvgjsPath1024" d="M871 60.9999C886.464 60.9999 899 73.5358 899 88.9998C899 104.464 886.464 117 871 117C855.536 117 843 104.464 843 88.9998C843 73.5358 855.536 60.9999 871 60.9999Z " fill="#48e5e7" transform="matrix(1,0,0,1,-836,-57.49995)"></path><path id="SvgjsPath1025" d="M872.03 98.7112C871.6 99.11370000000001 870.922 99.11370000000001 870.492 98.7112C870.0749999999999 98.3224 870.0749999999999 97.6782 870.492 97.28960000000001L878.295 90.0146L859.0899999999999 90.0146C858.4879999999999 90.0146 857.9959999999999 89.56830000000001 857.9959999999999 89.0122C857.9959999999999 88.4517 858.4879999999998 87.9928 859.0899999999999 87.9928L878.295 87.9928L870.492 80.7304C870.0749999999999 80.3292 870.0749999999999 79.6795 870.492 79.29520000000001C870.9219999999999 78.894 871.5999999999999 78.894 872.03 79.29520000000001L881.6809999999999 88.29240000000001C882.098 88.68100000000001 882.098 89.32540000000002 881.6809999999999 89.71400000000001Z " fill="#ffffff" transform="matrix(1,0,0,1,-836,-57.49995)"></path></svg>